<svg width="32" height="33" viewBox="0 0 32 33" fill="none" xmlns="http://www.w3.org/2000/svg">
<path fill-rule="evenodd" clip-rule="evenodd" d="M17.5721 5.50489C17.5561 5.45302 17.5561 5.45302 17.5561 5.40913C17.5413 5.06897 17.6622 4.73685 17.8921 4.48572C18.122 4.2346 18.4422 4.08501 18.7824 4.06982C19.1222 4.05645 19.4535 4.17777 19.7043 4.40741C19.9551 4.63705 20.1051 4.95643 20.1217 5.29608C20.1372 5.63533 20.0175 5.96688 19.7889 6.21798C19.5602 6.46907 19.2413 6.61919 18.9021 6.63539C18.8662 6.64071 18.8196 6.63539 18.7677 6.63539C18.7465 6.64071 18.7145 6.64071 18.6933 6.66465C18.6188 6.77637 18.8795 6.76174 18.6866 7.24985C18.6866 7.24985 18.6866 7.30039 18.6706 7.35226C18.6547 7.53846 18.5642 8.09972 18.543 8.40695C18.5815 8.46015 18.5962 8.47345 18.5815 8.57985C18.5523 8.81827 18.5124 9.05526 18.4618 9.29007C18.4086 9.47627 18.3342 9.52149 18.2663 9.55873C18.1692 9.95507 18.14 10.2836 17.8926 10.7624C17.8633 11.1295 17.8327 11.2279 17.7516 11.4061C17.729 11.9381 17.7649 12.0179 17.3779 12.8704C17.2715 13.2694 17.3553 13.5447 17.4444 13.9624C17.5348 14.3893 17.8115 14.5755 17.8407 15.0171C17.9072 16.0425 17.8633 16.7527 17.6239 17.5534L17.8035 18.0162C18.0429 18.1279 18.6254 18.4498 18.2823 18.914C18.7385 19.1667 19.4327 19.438 19.9847 19.9527C20.2188 20.1482 20.4502 20.3716 20.667 20.6177C21.0873 20.6935 21.0341 20.7241 21.34 20.9249C22.2377 21.5075 23.6661 22.6592 24.496 23.4599C24.645 23.549 24.6916 23.6089 24.8099 23.6767C24.8232 23.7073 24.8325 23.7219 24.8232 23.7299C24.7886 23.8256 24.7886 23.8256 24.7434 23.9161C24.7953 23.9693 24.8698 24.0132 24.9216 24.0584C24.9748 24.065 24.9748 24.0504 25.0493 24.0358C25.1544 24.1329 25.2887 24.2153 25.3339 24.2153C25.4749 24.1861 25.4457 24.2087 25.58 24.0823C25.6186 24.0358 25.6917 24.0823 25.6917 24.0823C25.7449 24.0291 25.842 23.9241 25.9763 23.8483C26.0814 23.7884 26.2822 23.7884 26.2822 23.7884C26.3514 23.7964 26.3354 23.8562 26.3208 23.8855C26.245 23.9161 26.0814 23.9613 25.9923 24.0291C25.7901 24.2153 25.6252 24.4986 25.6252 24.4986C26.0229 24.4547 26.2689 24.5585 26.5815 24.5292C26.7624 24.5226 26.8967 24.5372 27.0829 24.4095C27.0829 24.4095 27.2691 24.2818 27.4353 24.2233C27.5923 24.1568 27.7412 24.2007 27.8742 24.3058C27.966 24.4175 28.0325 24.4175 27.8742 24.5665C27.8157 24.6263 27.7412 24.6941 27.6348 24.7926C27.458 24.9561 27.2186 25.1796 26.9698 25.3671C26.7506 25.5295 26.5158 25.6699 26.2689 25.7861C25.8194 26.092 25.9231 26.0175 25.5733 26.3101C25.5334 26.3393 25.4084 26.4138 25.3566 26.4511C25.2142 26.5335 25.177 26.459 25.0945 26.2941C25.0945 26.2941 25.0573 26.2343 24.9881 26.1079C24.9216 25.9656 24.8684 25.802 24.8924 25.802C24.8099 25.7927 24.4522 25.3445 24.4522 25.2567C24.3684 25.2394 24.0478 24.9109 24.0399 24.8444L23.7552 24.605C23.4187 24.6635 23.3429 24.4547 22.4771 23.7964C22.3707 23.7884 22.2151 23.7299 21.9983 23.565C21.602 23.2285 20.659 22.481 20.5034 22.3906C20.3305 22.3015 20.1297 22.2124 19.994 22.106C19.7998 22.0767 19.7041 22.0395 19.5977 22.0168C19.4913 21.9876 19.4115 21.941 19.1641 21.9118C18.7611 21.8519 18.3421 21.6724 17.9524 21.4636C17.7662 21.3665 17.6013 21.3213 17.4444 21.2388C17.0853 21.0739 16.7714 20.9249 16.532 20.8664C16.2671 20.8027 16.0128 20.7015 15.7766 20.5658C15.6954 20.5206 15.6502 20.486 15.5983 20.4687C15.4786 20.4395 15.3949 20.4767 15.343 20.498C15.0371 20.6416 14.7604 20.768 14.4971 20.9103C14.2577 21.03 14.0343 21.1577 13.7949 21.2907C13.5624 21.412 13.3255 21.5247 13.0846 21.6285C13.0846 21.6285 12.3744 21.965 11.9781 22.0913C11.6323 22.3533 10.9314 22.8175 10.5058 23.0423C10.2956 23.1394 9.88467 23.3774 9.69714 23.4306C9.59074 23.5118 9.20371 23.7738 8.90446 23.9906C8.66506 24.1555 8.49216 24.2978 8.49216 24.2978C8.35118 24.4095 8.35782 24.4707 8.11975 24.3576C8.05986 24.397 8.00214 24.4397 7.94686 24.4853C7.76066 24.6117 7.75268 24.5824 7.6782 24.5744C7.54387 24.6808 7.52791 24.6276 7.41619 24.7473C7.33506 24.8591 7.41619 24.8285 7.25925 24.8883C7.22201 24.8963 7.20604 24.9415 7.18343 24.9628C7.05841 25.0599 7.05044 25.3525 6.75119 25.3671C6.57164 25.4868 6.60888 25.6371 6.48918 25.6211C6.48918 25.7568 6.24978 25.927 6.20456 25.927C5.8162 26.0547 5.80024 25.7701 5.34538 25.9736C5.28553 25.9949 5.19509 26.0694 5.08337 26.0853C4.88121 26.1146 4.64181 26.0773 4.49285 25.9497C4.32534 25.7933 4.17952 25.6153 4.05927 25.4203C3.99144 25.2474 4.03666 25.1437 4.27606 24.9788C4.37315 24.9189 4.38778 24.8737 4.55269 24.867C4.63249 24.8351 4.61255 24.8803 4.7522 24.8351C4.83732 24.8138 4.83732 24.8285 5.00889 24.8285C5.04613 24.8059 5.098 24.7992 5.1738 24.7686C5.30681 24.7234 5.43449 24.6862 5.43449 24.6862C5.43449 24.6862 5.47172 24.6556 5.5994 24.6729C5.70314 24.6263 5.82418 24.5665 5.88403 24.5438C5.86807 24.3789 5.89068 24.3789 5.96383 24.3124C6.07023 24.23 6.08353 24.2459 6.16067 24.2991C6.18993 24.2898 6.21254 24.2818 6.19658 24.2526C6.18328 24.1555 6.11545 24.1103 6.13673 23.9241C6.10747 23.8483 6.0556 23.7525 6.07023 23.6926C6.08353 23.6328 6.10747 23.6009 6.14471 23.5876C6.18328 23.5716 6.20456 23.5956 6.22052 23.6168C6.25776 23.6621 6.28702 23.7964 6.28702 23.7964C6.295 23.9533 6.34022 24.1422 6.48918 24.0358C6.57829 23.9533 6.6009 23.7139 6.7738 23.7658L6.90148 23.8788C7.0132 23.7818 7.0132 23.7818 7.08767 23.7365C7.08767 23.7365 6.98128 23.6394 7.07172 23.557C7.13157 23.5051 7.21536 23.4679 7.34836 23.3242C7.71544 22.9359 7.90962 22.7656 8.29798 22.4504C8.98771 21.9284 9.74866 21.5078 10.5576 21.2016C10.7518 20.9701 10.93 20.8212 11.3357 20.7972C11.8371 19.9913 12.7787 19.2864 12.9955 19.1746C13.1738 18.8687 13.2482 18.898 13.481 18.8461C13.6605 18.7038 13.7137 18.7038 13.7869 18.5615C13.8707 18.2556 13.6379 17.4177 14.2963 17.3951C14.4452 17.2009 14.4 17.2461 14.557 17.0653C14.4787 16.8505 14.4261 16.6273 14.4 16.4003C14.3934 16.379 14.1393 16.1914 14.2271 15.9587C14.0877 15.7807 13.9682 15.5881 13.8707 15.3841C13.8421 15.3833 13.8138 15.3779 13.7869 15.3682C13.7576 15.3615 13.7137 15.3615 13.6672 15.3615C13.5634 15.6222 13.4504 15.6382 13.2642 15.698C12.9184 16.379 12.7987 16.6702 11.873 17.2169C11.5006 17.6132 11.365 18.0681 11.365 18.0601C11.3085 18.1959 11.3028 18.3474 11.349 18.487C11.2891 18.6293 11.3131 18.6519 11.3131 18.6519C11.3264 18.7118 11.3876 18.7929 11.4541 18.8009C11.5591 18.8315 11.6788 18.8315 11.6642 18.9578C11.6496 19.1081 11.4474 19.0775 11.349 19.0549C10.9832 18.9884 11.1029 18.749 10.8635 18.8235C10.676 18.9366 10.6029 19.2864 10.3103 19.2358C10.273 19.2052 10.2877 19.1374 10.3182 19.0775C10.3555 18.9977 10.43 18.9206 10.3927 18.8913C10.1985 18.9445 9.81684 19.0549 9.81684 19.0549C9.63729 19.1081 9.44311 19.0031 9.62133 18.89C9.70512 18.8608 9.82482 18.8235 9.97378 18.7331C9.97378 18.7331 10.0562 18.6373 9.89797 18.6812C9.71879 18.735 9.53122 18.7553 9.34469 18.7411C9.34469 18.7411 9.00288 18.6892 8.95633 18.6666C8.91909 18.6373 8.8752 18.5243 8.97894 18.5336C9.23101 18.5297 9.48198 18.4994 9.72773 18.4431C9.85408 18.3966 10.1001 18.2569 10.2358 18.1958C10.2358 18.1958 10.3861 17.9869 10.4752 17.9431C10.6175 17.7914 10.7279 17.7037 10.8476 17.5454C10.9673 17.306 11.1029 16.9336 11.5126 16.3404C11.7202 16.0308 11.9586 15.7429 12.2241 15.4812C12.2241 15.4812 12.3066 15.0317 12.6803 14.7191C12.7641 14.5329 12.8891 14.3068 13.0248 14.1047C13.0761 14.033 13.1232 13.9584 13.1658 13.8812C13.2855 13.7083 13.4132 13.3798 13.8547 13.3359C13.8547 13.3359 14.0502 13.2003 14.1167 13.1032C14.2284 13.0061 14.2151 12.8558 14.3029 12.7587C14.1619 12.6177 13.8175 12.3477 13.7949 11.9966C13.7803 11.8266 13.8045 11.6554 13.8655 11.496C13.9266 11.3366 14.0229 11.1931 14.1473 11.0763C14.408 10.8302 14.6767 10.7105 15.0065 10.7331C15.4175 10.8063 15.4933 10.9419 15.6116 11.0763C15.7313 11.2106 15.7845 11.1295 15.8284 11.2704C16.1729 11.3675 16.1583 11.3303 16.1436 11.5843C16.2035 11.6601 16.2846 11.728 16.2766 11.8689C16.3897 11.6362 16.4203 11.5923 16.7342 11.3383C16.8166 11.1295 16.8672 10.9193 16.9337 10.7025C17.0028 10.5084 17.0853 10.3062 17.1385 10.1572C17.0853 9.72365 17.2183 9.65582 17.3992 9.27411C17.3699 9.22224 17.3779 9.20761 17.3912 9.12515C17.467 8.86979 17.5721 8.54926 17.6386 8.33247C17.6386 8.33247 17.6612 8.24868 17.7516 8.24868C17.8314 7.98002 17.9604 7.47861 17.9897 7.36689C18.0721 7.09025 18.0283 6.98518 17.9764 6.82159C17.9604 6.76839 17.9684 6.70189 17.9365 6.64071C17.8448 6.4625 17.7605 6.28058 17.6838 6.09541C17.6465 5.99832 17.5774 5.62459 17.5774 5.62459C17.5721 5.54213 17.5721 5.50489 17.5721 5.50489Z" fill="#111111"/>
</svg>
